Coordinates
version=1
nRows=11
nColumns=40
inDegrees=yes

Units are S.I. units (second, meters, Newtons, ...)
Angles are in degrees.

endheader
time	pelvis_tilt	pelvis_list	pelvis_rotation	pelvis_tx	pelvis_ty	pelvis_tz	hip_flexion_r	hip_adduction_r	hip_rotation_r	knee_angle_r	knee_angle_r_beta	ankle_angle_r	subtalar_angle_r	mtp_angle_r	hip_flexion_l	hip_adduction_l	hip_rotation_l	knee_angle_l	knee_angle_l_beta	ankle_angle_l	subtalar_angle_l	mtp_angle_l	lumbar_extension	lumbar_bending	lumbar_rotation	arm_flex_r	arm_add_r	arm_rot_r	elbow_flex_r	pro_sup_r	wrist_flex_r	wrist_dev_r	arm_flex_l	arm_add_l	arm_rot_l	elbow_flex_l	pro_sup_l	wrist_flex_l	wrist_dev_l
     51.07314286	     -3.77465947	     -5.12282561	      4.98775898	      1.05053087	      0.92416218	      0.47819706	      1.89073604	      3.66210741	    -15.65263386	     12.62952149	     12.62952149	     16.36102170	      4.46993323	     -4.10110464	     28.88737919	     -9.01155201	     -3.13133026	     21.79266433	     21.79266433	      4.11134837	     -9.97645292	      6.27444908	     -9.80790301	      7.50128039	      3.90739230	     27.50520595	    -15.11638601	      2.45993594	     92.40406996	     43.96009205	      0.00000000	      0.00000000	     -6.86119781	     -8.33834247	     -0.96167192	     32.89823202	     46.06881578	      0.00000000	      0.00000000
     51.08628571	     -3.75025807	     -5.11277988	      4.82555772	      1.05196882	      0.92362777	      0.47618611	      1.32804491	      3.52724582	    -15.65105061	     12.54634086	     12.54634086	     16.70194441	      4.86510548	     -3.81406352	     28.31946221	     -8.82993322	     -3.07038582	     22.22154848	     22.22154848	      3.69628113	    -10.69066584	      5.75339543	     -9.61100333	      7.42811600	      4.33258229	     26.97986958	    -15.32300538	      2.73531666	     94.68277029	     43.92430124	      0.00000000	      0.00000000	     -6.43568079	     -8.48358623	     -1.07243474	     34.04296629	     46.08004996	      0.00000000	      0.00000000
     51.09942857	     -3.80074758	     -5.11833582	      4.65711216	      1.05332664	      0.92309597	      0.47424424	      0.89370827	      3.42313085	    -15.43854273	     12.51760869	     12.51760869	     16.97073698	      4.97601539	     -3.85139336	     27.91486956	     -8.71958995	     -3.08951101	     22.68943743	     22.68943743	      3.67484843	    -10.95340635	      5.67767078	     -9.23772190	      7.31731455	      4.32423827	     27.07919399	    -14.93250040	      2.91168277	     95.00453647	     43.91212112	      0.00000000	      0.00000000	     -5.90039962	     -8.60834752	     -1.08410998	     34.27222088	     46.08904450	      0.00000000	      0.00000000
     51.11257143	     -3.73096470	     -5.16939144	      4.56843315	      1.05464949	      0.92283624	      0.47199933	      0.29676832	      3.35737677	    -15.41920317	     12.41809100	     12.41809100	     17.17270888	      5.22240766	     -3.52875636	     27.50628582	     -8.57231974	     -2.74059119	     23.22510396	     23.22510396	      3.66488620	    -11.74592650	      5.42317133	     -9.16014463	      7.31986154	      4.15582441	     26.91171773	    -14.72576992	      3.47971005	     97.05929647	     43.85552483	      0.00000000	      0.00000000	     -5.60639621	     -8.77299295	     -1.16949181	     35.04079544	     46.09926867	      0.00000000	      0.00000000
     51.12571429	     -3.69399812	     -5.12226495	      4.42868879	      1.05584843	      0.92272725	      0.46964835	     -0.09535371	      3.12824931	    -15.25883539	     12.63412679	     12.63412679	     17.36219140	      5.25571245	     -3.45670781	     27.13264671	     -8.39541284	     -2.62553556	     23.70583310	     23.70583310	      3.92897136	    -12.12698521	      5.19385766	     -8.99759895	      7.18608656	      4.15811178	     26.78146879	    -14.60075302	      3.74405667	     97.61977915	     43.83990024	      0.00000000	      0.00000000	     -5.01768478	     -8.92325080	     -1.21632025	     35.49966334	     46.11205502	      0.00000000	      0.00000000
     51.13885714	     -3.69442217	     -5.06224236	      4.33614778	      1.05690083	      0.92276053	      0.46716267	     -0.40078423	      2.86783564	    -15.18781368	     12.89985931	     12.89985931	     17.44792844	      5.18953804	     -3.38270519	     26.83482050	     -8.19243676	     -2.50952810	     24.12910678	     24.12910678	      4.30576275	    -12.49759228	      4.97307173	     -8.83063009	      7.00818815	      4.04608289	     26.59435444	    -14.43011094	      4.04478144	     98.11922343	     43.82115236	      0.00000000	      0.00000000	     -4.31758508	     -9.09994919	     -1.26331141	     35.94780334	     46.12721338	      0.00000000	      0.00000000
     51.15200000	     -3.77311444	     -4.97084086	      4.24687021	      1.05771922	      0.92280563	      0.46445263	     -0.32877481	      2.46833625	    -15.06230812	     13.72736426	     13.72736426	     17.69481946	      4.96675016	     -3.16547641	     26.62907428	     -7.90728105	     -2.28106996	     24.47870924	     24.47870924	      4.67047071	    -13.05759733	      4.83947024	     -8.66716591	      6.85880526	      4.05531414	     26.15408525	    -14.83209449	      4.63572465	     99.58362148	     43.77948125	      0.00000000	      0.00000000	     -3.74465084	     -9.23942630	     -1.34878210	     36.88685041	     46.14271640	      0.00000000	      0.00000000
     51.16514286	     -3.73216222	     -4.89274302	      4.14601362	      1.05859780	      0.92322967	      0.46170347	     -0.44386976	      2.10609063	    -14.93927496	     14.41189549	     14.41189549	     17.78036342	      4.78620418	     -3.08418285	     26.27922956	     -7.69419344	     -2.20176034	     24.79419214	     24.79419214	      5.18576432	    -13.35874811	      4.67525690	     -8.60326017	      6.66930300	      3.98539974	     25.72953053	    -14.93319347	      4.92673401	     99.97775074	     43.77206273	      0.00000000	      0.00000000	     -2.99615513	     -9.39932984	     -1.36015066	     37.46935496	     46.15272115	      0.00000000	      0.00000000
     51.17828571	     -3.75204160	     -4.91445701	      4.10708022	      1.05942385	      0.92383626	      0.45875870	     -0.61094512	      1.87120717	    -14.84480661	     14.80656986	     14.80656986	     17.58498347	      4.72278549	     -3.05718474	     25.94617971	     -7.55590348	     -2.12536455	     24.93705830	     24.93705830	      5.69943365	    -13.52185057	      4.48175929	     -8.47889100	      6.67751366	      3.64877107	     25.43319599	    -14.89053254	      5.05170011	     99.99422759	     43.76877475	      0.00000000	      0.00000000	     -2.28967081	     -9.51294358	     -1.37112525	     37.77237507	     46.16408082	      0.00000000	      0.00000000
     51.19142857	     -3.78763758	     -4.64382719	      3.97863882	      1.05985767	      0.92422870	      0.45569443	      0.06046834	      1.07412525	    -14.61384055	     16.82652878	     16.82652878	     17.76877584	      4.02777660	     -3.41576522	     25.62877323	     -7.13476607	     -2.22642479	     25.13977887	     25.13977887	      6.15482036	    -13.73544753	      4.46138433	     -8.41050065	      6.31780244	      3.81369873	     24.74164368	    -15.34287692	      5.53612128	    100.33515713	     43.75747651	      0.00000000	      0.00000000	     -1.43460276	     -9.69559887	     -1.35482335	     38.59921381	     46.17328908	      0.00000000	      0.00000000
     51.20457143	     -3.77720061	     -4.52925619	      3.87617397	      1.06041491	      0.92486880	      0.45262338	      0.50447292	      0.50790868	    -14.37991925	     18.44506877	     18.44506877	     17.72296142	      3.50197181	     -3.78938005	     25.20471836	     -6.87353848	     -2.31777782	     25.21640720	     25.21640720	      6.62470648	    -13.85991284	      4.45118387	     -8.34878769	      6.15199397	      3.73533165	     24.01826083	    -15.67211216	      5.86743476	    100.42831157	     43.75796899	      0.00000000	      0.00000000	     -0.61262764	     -9.85671348	     -1.26713061	     39.34077749	     46.17410751	      0.00000000	      0.00000000
